<svg width="1920" height="1080" viewBox="0 0 1920 1080" fill="none" xmlns="http://www.w3.org/2000/svg">
<g clip-path="url(#clip0_1427_1192)">
<circle cx="1749" cy="207" r="17" fill="#F2C759"/>
<rect x="2081.07" y="1029.11" width="242" height="233" transform="rotate(165 2081.07 1029.11)" fill="#EDF1F2"/>
<rect x="2175.93" y="564.053" width="935.069" height="472.715" transform="rotate(120.991 2175.93 564.053)" fill="#EDF1F2"/>
<rect x="1914.23" y="528.334" width="100.909" height="342.347" rx="50.4547" transform="rotate(120 1914.23 528.334)" fill="#F9FAFB"/>
<rect x="1783.76" y="569.178" width="105.297" height="413.824" rx="52.6484" transform="rotate(120 1783.76 569.178)" fill="#EDF1F2"/>
<rect x="1633.53" y="718.917" width="105.297" height="413.824" rx="52.6484" transform="rotate(120 1633.53 718.917)" fill="#EDF1F2"/>
<rect x="1962.13" y="431.198" width="108.37" height="413.824" rx="54.1851" transform="rotate(120 1962.13 431.198)" fill="#EDF1F2"/>
<rect x="1742.37" y="902.489" width="104.104" height="413.824" rx="52.0519" transform="rotate(120 1742.37 902.489)" fill="#F9FAFB"/>
<rect x="1602.72" y="942.137" width="101.566" height="413.824" rx="50.7829" transform="rotate(120 1602.72 942.137)" fill="#EDF1F2"/>
<rect x="1449.66" y="971.078" width="103.253" height="413.824" rx="51.6266" transform="rotate(120 1449.66 971.078)" fill="#F9FAFB"/>
<rect x="1424.43" y="1075.59" width="108.295" height="413.824" rx="54.1476" transform="rotate(120 1424.43 1075.59)" fill="#EDF1F2"/>
<rect x="1731.53" y="659.637" width="100.909" height="413.824" rx="50.4547" transform="rotate(120 1731.53 659.637)" fill="#F9FAFB"/>
<circle cx="1710.82" cy="700.821" r="17" transform="rotate(165 1710.82 700.821)" fill="#F2C759"/>
<circle cx="1603" cy="403" r="17" fill="#5CA7F9"/>
<circle cx="1201" cy="886" r="17" fill="#5CA7F9"/>
</g>
<defs>
<clipPath id="clip0_1427_1192">
<rect width="1920" height="1080" fill="white"/>
</clipPath>
</defs>
</svg>
