<svg width="1920" height="1080" viewBox="0 0 1920 1080" fill="none" xmlns="http://www.w3.org/2000/svg">
<g clip-path="url(#clip0_4_23)">
<mask id="mask0_4_23" style="mask-type:luminance" maskUnits="userSpaceOnUse" x="0" y="0" width="1920" height="1080">
<path d="M1920 1080H0V0H1920V1080Z" fill="white"/>
</mask>
<g mask="url(#mask0_4_23)">
<path d="M-36.7742 779.358C-36.7742 779.358 274.778 941.592 478.15 914.577C631.18 894.25 698.04 742.93 852.46 749.568C1005.84 756.16 1064.11 907.306 1217.53 911.26C1379.54 915.436 1441.73 737.581 1604.23 746.82C1786.55 757.186 2012.74 1056.09 2012.74 1056.09L-33.0394 1113L-36.7742 779.358Z" fill="#F2C759"/>
<path d="M-10.539 809.8C594.548 1124.63 822.58 720.144 1545.65 1117.72L1547.04 1176.7L-1.03101 1213.19L-10.539 809.8Z" fill="#F7D581"/>
<path d="M-30.2787 833.568C-30.2787 833.568 273.875 976.804 471.752 951.104C620.645 931.766 684.984 795.579 835.368 800.413C984.738 805.215 1042.23 940.341 1191.62 942.776C1349.39 945.348 1409.04 785.397 1567.31 792.506C1744.88 800.483 1966.6 1066.91 1966.6 1066.91L-24.9689 1132.75L-30.2787 833.568Z" fill="#F7D581"/>
<path d="M-14.0695 838.58C-14.0695 838.58 283.263 957.851 479.555 941.945C627.258 929.976 694.149 824.266 842.744 831.339C990.337 838.366 1043.95 945.892 1191.62 951.058C1347.57 956.513 1410.39 832.011 1566.73 841.046C1742.13 851.183 1955 1065.55 1955 1065.55L-16 1074L-14.0695 838.58Z" fill="#FBE3A7"/>
<path d="M-4 868.5C-4 868.5 296.137 985.459 493.5 968C642.008 954.863 708.437 848.596 858 854.5C1006.56 860.365 1061.38 967.497 1210 971.5C1366.95 975.727 1429.13 850.695 1586.5 858.5C1763.06 867.257 1979 1080 1979 1080L-4 1104V868.5Z" fill="#FFF1CD"/>
<path d="M1968 1230H-37V1041H1968V1230Z" fill="#FFF1CD"/>
</g>
</g>
<defs>
<clipPath id="clip0_4_23">
<rect width="1920" height="1080" fill="white"/>
</clipPath>
</defs>
</svg>
