<svg width="1920" height="1080" viewBox="0 0 1920 1080" fill="none" xmlns="http://www.w3.org/2000/svg">
<g clip-path="url(#clip0_11_34)">
<mask id="mask0_11_34" style="mask-type:luminance" maskUnits="userSpaceOnUse" x="0" y="0" width="1920" height="1080">
<path d="M1920 0H0V1080H1920V0Z" fill="white"/>
</mask>
<g mask="url(#mask0_11_34)">
<mask id="mask1_11_34" style="mask-type:luminance" maskUnits="userSpaceOnUse" x="0" y="0" width="1920" height="1080">
<path d="M1920 0H0V1080H1920V0Z" fill="white"/>
</mask>
<g mask="url(#mask1_11_34)">
<path d="M-36.7742 330.642C-36.7742 330.642 274.778 168.408 478.15 195.423C631.18 215.75 698.04 367.07 852.46 360.432C1005.84 353.84 1064.11 202.694 1217.53 198.74C1379.54 194.564 1441.73 372.419 1604.23 363.18C1786.55 352.814 2012.74 53.9063 2012.74 53.9063L-33.0394 -3L-36.7742 330.642Z" fill="#41A0CD"/>
<path d="M-10.5389 300.2C594.548 -14.6296 822.58 389.856 1545.65 -7.71609L1547.04 -66.6997L-1.03095 -103.188L-10.5389 300.2Z" fill="#6FB1D5"/>
<path d="M-30.2787 276.432C-30.2787 276.432 273.875 133.196 471.752 158.896C620.645 178.234 684.984 314.421 835.368 309.587C984.738 304.785 1042.23 169.659 1191.62 167.224C1349.39 164.652 1409.04 324.603 1567.31 317.494C1744.88 309.517 1966.6 43.0948 1966.6 43.0948L-24.9689 -22.7506L-30.2787 276.432Z" fill="#6FB1D5"/>
<path d="M-14.0695 271.42C-14.0695 271.42 283.263 152.149 479.555 168.055C627.258 180.024 694.149 285.734 842.744 278.661C990.337 271.634 1043.95 164.108 1191.62 158.942C1347.57 153.487 1410.39 277.989 1566.73 268.954C1742.13 258.817 1955 44.4535 1955 44.4535L-16 36L-14.0695 271.42Z" fill="#B6D3E5"/>
<path d="M-4 241.5C-4 241.5 296.137 124.541 493.5 142C642.008 155.137 708.437 261.404 858 255.5C1006.56 249.635 1061.38 142.503 1210 138.5C1366.95 134.273 1429.13 259.305 1586.5 251.5C1763.06 242.743 1979 30 1979 30L-4 6V241.5Z" fill="#D7E5ED"/>
<path d="M1968 -125H-37V64H1968V-125Z" fill="#D7E5ED"/>
</g>
</g>
</g>
<defs>
<clipPath id="clip0_11_34">
<rect width="1920" height="1080" fill="white"/>
</clipPath>
</defs>
</svg>
