<svg xmlns="http://www.w3.org/2000/svg" version="1.1" xmlns:xlink="http://www.w3.org/1999/xlink" xmlns:svgjs="http://svgjs.com/svgjs" width="1440" height="560" preserveAspectRatio="none" viewBox="0 0 1440 560">
    <g mask="url(&quot;#SvgjsMask1995&quot;)" fill="none">
        <rect width="118.80000000000001" height="118.80000000000001" clip-path="url(&quot;#SvgjsClipPath1996&quot;)" x="1313.65" y="68.15" fill="url(#SvgjsPattern1997)" transform="rotate(69.52, 1373.05, 127.55)"></rect>
        <rect width="126.6" height="126.6" clip-path="url(&quot;#SvgjsClipPath1998&quot;)" x="257.39" y="232.76" fill="url(#SvgjsPattern1999)" transform="rotate(183.16, 320.69, 296.06)"></rect>
        <circle r="79.9790876272473" cx="284.22" cy="459.23" stroke="rgba(223, 214, 205, 1)" stroke-width="1.04" stroke-dasharray="3, 3"></circle>
        <path d="M1583.01 458.66 L1560.74 308.41L1511.035999342747 444.3740006572531z" fill="rgba(223, 214, 205, 1)"></path>
        <rect width="60" height="60" clip-path="url(&quot;#SvgjsClipPath2000&quot;)" x="1231.64" y="396.43" fill="url(#SvgjsPattern2001)" transform="rotate(163.05, 1261.64, 426.43)"></rect>
        <path d="M1106.15 200.16L1118.74 197.83 1123.78 209.61 1136.37 207.28 1141.41 219.06 1154 216.73 1159.03 228.5M1102.37 207.21L1114.96 204.88 1120 216.66 1132.59 214.33 1137.63 226.11 1150.22 223.78 1155.25 235.56" stroke="rgba(223, 214, 205, 1)" stroke-width="1" stroke-dasharray="4, 4"></path>
        <path d="M40.88 111.71L28.53 115.1 22.51 103.8 10.16 107.19 4.14 95.88-8.21 99.27-14.23 87.97M44.04 104.36L31.69 107.75 25.67 96.45 13.33 99.84 7.31 88.53-5.04 91.92-11.06 80.62" stroke="rgba(223, 214, 205, 1)" stroke-width="1.51" stroke-dasharray="3, 2"></path>
        <path d="M424.22 335.73a5.6 5.6 0 1 0 8.94-6.75 5.6 5.6 0 1 0-8.94 6.75zM436.98 326.08a5.6 5.6 0 1 0 8.94-6.75 5.6 5.6 0 1 0-8.94 6.75zM449.75 316.43a5.6 5.6 0 1 0 8.93-6.75 5.6 5.6 0 1 0-8.93 6.75zM462.51 306.78a5.6 5.6 0 1 0 8.93-6.76 5.6 5.6 0 1 0-8.93 6.76zM408.35 367.8a5.6 5.6 0 1 0 8.93-6.76 5.6 5.6 0 1 0-8.93 6.76zM421.11 358.15a5.6 5.6 0 1 0 8.94-6.76 5.6 5.6 0 1 0-8.94 6.76zM433.87 348.5a5.6 5.6 0 1 0 8.94-6.76 5.6 5.6 0 1 0-8.94 6.76zM446.64 338.84a5.6 5.6 0 1 0 8.93-6.75 5.6 5.6 0 1 0-8.93 6.75z" stroke="rgba(223, 214, 205, 1)" stroke-width="1" stroke-dasharray="2, 2"></path>
        <rect width="312" height="312" clip-path="url(&quot;#SvgjsClipPath2002&quot;)" x="144.82" y="50.24" fill="url(#SvgjsPattern2003)" transform="rotate(297.95, 300.82, 206.24)"></rect>
        <circle r="55.890952232556174" cx="773.8" cy="197" stroke="rgba(223, 214, 205, 1)" stroke-width="1.11" stroke-dasharray="3, 3"></circle>
        <path d="M377.12 326.33L365.09 330.73 358.16 319.96 346.13 324.36 339.2 313.59 327.17 317.99 320.24 307.22M379.66 318.75L367.64 323.15 360.71 312.38 348.68 316.78 341.75 306.01 329.72 310.4 322.79 299.63" stroke="rgba(223, 214, 205, 1)" stroke-width="2.38" stroke-dasharray="3, 3"></path>
        <path d="M1302.2 123.7a5.6 5.6 0 1 0 10.51-3.86 5.6 5.6 0 1 0-10.51 3.86zM1317.22 118.19a5.6 5.6 0 1 0 10.51-3.86 5.6 5.6 0 1 0-10.51 3.86zM1332.24 112.67a5.6 5.6 0 1 0 10.51-3.86 5.6 5.6 0 1 0-10.51 3.86zM1347.26 107.16a5.6 5.6 0 1 0 10.51-3.86 5.6 5.6 0 1 0-10.51 3.86zM1277.67 149.75a5.6 5.6 0 1 0 10.52-3.86 5.6 5.6 0 1 0-10.52 3.86zM1292.69 144.23a5.6 5.6 0 1 0 10.52-3.86 5.6 5.6 0 1 0-10.52 3.86zM1307.71 138.72a5.6 5.6 0 1 0 10.52-3.86 5.6 5.6 0 1 0-10.52 3.86zM1322.73 133.21a5.6 5.6 0 1 0 10.52-3.86 5.6 5.6 0 1 0-10.52 3.86zM1253.15 175.8a5.6 5.6 0 1 0 10.51-3.86 5.6 5.6 0 1 0-10.51 3.86zM1268.17 170.28a5.6 5.6 0 1 0 10.51-3.86 5.6 5.6 0 1 0-10.51 3.86zM1283.19 164.77a5.6 5.6 0 1 0 10.51-3.86 5.6 5.6 0 1 0-10.51 3.86zM1298.21 159.25a5.6 5.6 0 1 0 10.51-3.86 5.6 5.6 0 1 0-10.51 3.86z" fill="rgba(223, 214, 205, 1)"></path>
    </g>
    <defs>
        <mask id="SvgjsMask1995">
            <rect width="1440" height="560" fill="#ffffff"></rect>
        </mask>
        <pattern x="0" y="0" width="11.88" height="11.88" patternUnits="userSpaceOnUse" id="SvgjsPattern1997">
            <path d="M0 11.88L5.94 0L11.88 11.88" stroke="rgba(223, 214, 205, 1)" fill="none"></path>
        </pattern>
        <clipPath id="SvgjsClipPath1996">
            <circle r="29.700000000000003" cx="1373.05" cy="127.55"></circle>
        </clipPath>
        <pattern x="0" y="0" width="12.66" height="12.66" patternUnits="userSpaceOnUse" id="SvgjsPattern1999">
            <path d="M0 12.66L6.33 0L12.66 12.66" stroke="rgba(223, 214, 205, 1)" fill="none"></path>
        </pattern>
        <clipPath id="SvgjsClipPath1998">
            <circle r="31.65" cx="320.69" cy="296.06"></circle>
        </clipPath>
        <pattern x="0" y="0" width="60" height="6" patternUnits="userSpaceOnUse" id="SvgjsPattern2001">
            <rect width="60" height="3" x="0" y="0" fill="rgba(223, 214, 205, 1)"></rect>
            <rect width="60" height="3" x="0" y="3" fill="rgba(0, 0, 0, 0)"></rect>
        </pattern>
        <clipPath id="SvgjsClipPath2000">
            <circle r="15" cx="1261.64" cy="426.43"></circle>
        </clipPath>
        <pattern x="0" y="0" width="6" height="6" patternUnits="userSpaceOnUse" id="SvgjsPattern2003">
            <path d="M0 6L3 0L6 6" stroke="rgba(223, 214, 205, 1)" fill="none"></path>
        </pattern>
        <clipPath id="SvgjsClipPath2002">
            <circle r="78" cx="300.82" cy="206.24"></circle>
        </clipPath>
    </defs>
</svg>